<svg width="32" height="32" viewBox="0 0 32 32" fill="none" xmlns="http://www.w3.org/2000/svg">
<g id="Logo New Shield 1" clip-path="url(#clip0_923_2246)">
<g id="&#208;&#161;&#208;&#187;&#208;&#190;&#208;&#185; 2">
<g id="&#208;&#161;&#208;&#187;&#208;&#190;&#208;&#185; 1">
<path id="Vector" d="M32 4.33733C31.9757 5.97613 31.8303 7.61076 31.5648 9.22739C31.5072 9.61105 31.4368 9.98821 31.3664 10.3589C29.8218 9.25302 28.1655 8.31783 26.4256 7.56919C24.8563 6.88989 23.225 6.36932 21.5552 6.01504C21.45 5.98647 21.3431 5.96475 21.2352 5.95001C19.5496 5.60474 17.8347 5.42832 16.1152 5.42329H15.9616C14.2421 5.42832 12.5272 5.60474 10.8416 5.95001C10.7337 5.96475 10.6268 5.98647 10.5216 6.01504C8.85184 6.36932 7.2205 6.88989 5.6512 7.56919C3.88691 8.31324 2.20678 9.24854 0.64 10.3589C0.5696 9.98821 0.4992 9.61105 0.4416 9.22739C0.173989 7.61092 0.0263727 5.97629 0 4.33733C1.59768 3.39719 3.27214 2.59874 5.0048 1.95082L5.3952 1.80776C6.949 1.24947 8.54312 0.814645 10.1632 0.507214C10.4128 0.455192 10.6688 0.416176 10.9248 0.377159C12.4538 0.135641 13.9983 0.00957638 15.5456 0L16.4416 0C17.9896 0.0181814 19.5341 0.152941 21.0624 0.40317C21.3184 0.442187 21.5744 0.481203 21.824 0.533225C23.4441 0.840656 25.0382 1.27548 26.592 1.83377L26.9824 1.97683C28.7186 2.6157 30.3973 3.40545 32 4.33733Z" fill="#5757FF"/>
<path id="Vector_2" d="M25.1269 12.9209C24.5886 14.4582 23.9138 15.9426 23.1109 17.3558L22.8421 17.8175C21.1409 16.9984 19.3095 16.4941 17.4341 16.3283C16.9578 16.2785 16.4792 16.2546 16.0005 16.2568C15.5205 16.2568 15.0405 16.2568 14.5669 16.3218C12.6888 16.4889 10.8552 16.9954 9.15246 17.8175C9.98226 19.216 10.9355 20.535 12.0005 21.7581C12.1541 21.9402 12.3141 22.1158 12.4741 22.2914C13.5522 23.4793 14.7323 24.5674 16.0005 25.5427C17.524 26.7035 19.1653 27.6954 20.8965 28.5015C20.6469 28.7161 20.4037 28.9242 20.1477 29.1517C18.8423 30.2121 17.4555 31.1646 16.0005 31.9999C14.5439 31.15 13.157 30.1823 11.8533 29.1062C11.5973 28.8981 11.3541 28.6901 11.1045 28.456C10.0013 27.4954 8.96219 26.4613 7.99406 25.3606C7.68686 25.0095 7.35406 24.6518 7.09806 24.2877C6.2513 23.2258 5.47314 22.1094 4.76846 20.9453C4.49326 20.5031 4.23086 20.0479 3.98126 19.5862C3.33863 18.4047 2.76796 17.1842 2.27246 15.9317C5.04767 13.5585 8.37461 11.9466 11.9365 11.2497C12.7526 11.087 13.5775 10.9741 14.4069 10.9116C14.9317 10.8725 15.4629 10.853 15.9941 10.853C16.5253 10.853 17.0565 10.853 17.5813 10.9116C20.1965 11.1142 22.7535 11.7995 25.1269 12.9339V12.9209Z" fill="#5757FF"/>
</g>
</g>
</g>
<defs>
<clipPath id="clip0_923_2246">
<rect width="32" height="32" fill="white"/>
</clipPath>
</defs>
</svg>
