<svg width="250" height="86" viewBox="0 0 250 86" fill="none" xmlns="http://www.w3.org/2000/svg">
<g id="changing-education.svg">
<g id="Group" style="mix-blend-mode:luminosity">
<path id="Vector" fill-rule="evenodd" clip-rule="evenodd" d="M207.201 24.6875C207.834 24.6875 208.379 24.9161 208.833 25.3733C209.287 25.8305 209.514 26.3783 209.514 27.0167C209.514 27.6551 209.283 28.2072 208.82 28.6731C208.375 29.1217 207.834 29.3461 207.201 29.3461C206.566 29.3461 206.022 29.1174 205.568 28.6602C205.114 28.2029 204.887 27.6551 204.887 27.0167C204.887 26.3783 205.114 25.8305 205.568 25.3733C206.022 24.9161 206.566 24.6875 207.201 24.6875ZM20.2092 24.9705C21.8375 24.9705 23.3414 25.3587 24.7212 26.1351C26.1008 26.9116 27.1764 27.964 27.9476 29.2926L25.3767 30.7937L25.3324 30.7127C24.8543 29.8535 24.1706 29.1688 23.2815 28.6585C22.3645 28.1323 21.3404 27.8692 20.2092 27.8692C18.2896 27.8692 16.7343 28.4817 15.5431 29.7067C14.3519 30.9317 13.7563 32.4846 13.7563 34.3653C13.7563 36.246 14.3519 37.7988 15.5431 39.0239C16.7343 40.2489 18.2896 40.8614 20.2092 40.8614C21.3404 40.8614 22.3688 40.5983 23.2943 40.0721C24.2198 39.5458 24.9139 38.8341 25.3767 37.9369L27.9476 39.4121L27.8968 39.5003C27.1459 40.7875 26.0959 41.8149 24.7468 42.5826C23.3671 43.3676 21.8545 43.7601 20.2092 43.7601C17.5012 43.7601 15.256 42.8586 13.4735 41.0556C11.691 39.2525 10.7998 37.0224 10.7998 34.3653C10.7998 31.7082 11.691 29.4781 13.4735 27.6751C15.256 25.872 17.5012 24.9705 20.2092 24.9705ZM151.314 43.4253V25.309H147.457V31.7016C146.549 30.6491 145.272 30.1228 143.626 30.1228C141.93 30.1228 140.482 30.7828 139.282 32.1027C138.082 33.4227 137.482 35.0402 137.482 36.9555C137.482 38.8706 138.082 40.4882 139.282 41.8081C140.482 43.1281 141.93 43.788 143.626 43.788C145.243 43.788 146.505 43.2797 147.41 42.2633L147.457 42.2093V43.4257H151.314V43.4253ZM222.389 32.1029C221.07 30.783 219.459 30.123 217.556 30.123C215.654 30.123 214.043 30.783 212.723 32.1029C211.404 33.4229 210.744 35.0404 210.744 36.9556C210.744 38.8708 211.404 40.4883 212.723 41.8083C214.043 43.1282 215.654 43.7882 217.556 43.7882C219.459 43.7882 221.07 43.1325 222.389 41.8212C223.709 40.4927 224.369 38.8708 224.369 36.9556C224.369 35.0404 223.709 33.4229 222.389 32.1029ZM79.3699 30.1478C81.3065 30.1478 82.7975 30.8983 83.8431 32.3994V30.4842H86.5679V42.8298V42.9202C86.5481 44.8431 85.9057 46.3226 84.64 47.3589C83.3544 48.4114 81.7951 48.9377 79.9613 48.9377C76.9956 48.9377 74.9649 47.8938 73.8684 45.8061L76.2591 44.4084L76.2876 44.465C76.9637 45.7559 78.2052 46.4013 80.0123 46.4013C81.2123 46.4013 82.1508 46.0864 82.8277 45.4567C83.5046 44.8269 83.8431 43.9513 83.8431 42.8298V41.251L83.7973 41.3158C82.7544 42.7737 81.2788 43.5027 79.3699 43.5027C77.5533 43.5027 76.0191 42.8513 74.7681 41.5487C73.517 40.246 72.8911 38.6715 72.8911 36.8254C72.8911 34.9792 73.517 33.4047 74.7681 32.1021C76.0191 30.7994 77.5533 30.148 79.3699 30.148V30.1478ZM114.522 30.1478C116.459 30.1478 117.95 30.8983 118.996 32.3994V30.4842H121.721V42.8298L121.721 42.9202C121.701 44.8431 121.058 46.3226 119.793 47.3589C118.507 48.4114 116.948 48.9377 115.114 48.9377C112.149 48.9377 110.118 47.8938 109.021 45.8061L111.412 44.4084L111.441 44.465C112.116 45.7559 113.358 46.4013 115.165 46.4013C116.365 46.4013 117.303 46.0864 117.98 45.4567C118.657 44.8269 118.996 43.9513 118.996 42.8298V41.251L118.95 41.3158C117.907 42.7737 116.431 43.5027 114.522 43.5027C112.706 43.5027 111.172 42.8513 109.921 41.5487C108.67 40.246 108.044 38.6715 108.044 36.8254C108.044 34.9792 108.67 33.4047 109.921 32.1021C111.172 30.7994 112.706 30.148 114.522 30.148V30.1478ZM186.182 30.123C187.826 30.123 189.103 30.6492 190.011 31.7018V30.4854H193.868V43.4257H190.011V42.2093L189.965 42.2634C189.059 43.2798 187.798 43.7881 186.182 43.7881C184.484 43.7881 183.036 43.1281 181.836 41.8082C180.637 40.4883 180.037 38.8707 180.037 36.9556C180.037 35.0403 180.637 33.4228 181.836 32.1028C183.036 30.7829 184.484 30.1229 186.182 30.1229V30.123ZM177.562 31.0289C176.525 30.4249 175.389 30.123 174.155 30.123C172.202 30.123 170.578 30.7787 169.283 32.09C167.99 33.4013 167.343 35.0231 167.343 36.9556C167.343 38.8881 167.99 40.5099 169.283 41.8212C170.578 43.1325 172.202 43.7882 174.155 43.7882C175.406 43.7882 176.546 43.4863 177.574 42.8823C178.574 42.2952 179.356 41.5124 179.918 40.5339L179.966 40.4496L176.598 38.5084C176.152 39.4746 175.321 39.9578 174.104 39.9578C173.264 39.9578 172.57 39.6775 172.022 39.1167C171.473 38.5559 171.199 37.8355 171.199 36.9556C171.199 36.0757 171.473 35.3553 172.022 34.7945C172.57 34.2337 173.264 33.9534 174.104 33.9534C175.282 33.9534 176.105 34.4194 176.573 35.3515L176.598 35.4028L179.966 33.4358C179.4 32.4351 178.598 31.6327 177.562 31.0289ZM157.245 30.4842V37.8603V37.9288C157.258 38.6546 157.468 39.2141 157.875 39.6073C158.295 40.0127 158.83 40.2154 159.481 40.2154C160.219 40.2154 160.802 39.9911 161.23 39.5425C161.658 39.0939 161.872 38.4297 161.872 37.5497V30.4842H165.729V43.4245H161.872V42.2081L161.833 42.2603C161.061 43.278 159.847 43.7869 158.196 43.7869C156.825 43.7869 155.681 43.3124 154.764 42.3634C153.847 41.4144 153.389 40.1031 153.389 38.4295V30.484H157.245V30.4842ZM54.0538 32.3218C53.0082 30.8724 51.5085 30.1478 49.5547 30.1478C47.79 30.1478 46.2816 30.8034 45.0306 32.1147C43.779 33.4261 43.1534 35.0393 43.1534 36.9545C43.1534 38.8524 43.779 40.4614 45.0306 41.7813C46.2816 43.1012 47.79 43.7612 49.5547 43.7612C51.4801 43.7612 52.9642 43.0493 54.0072 41.6255L54.0538 41.5613V43.4247H56.8304V30.4843H54.0538V32.3219V32.3218ZM201.001 26.8619V30.4853H203.649V34.2122H201.001V38.7931V38.8396C201.014 39.3304 201.219 39.6427 201.618 39.7766C202.03 39.9145 202.707 39.9577 203.649 39.906V43.4257L203.546 43.4364C201.151 43.6778 199.488 43.4371 198.559 42.7141C197.616 41.9808 197.145 40.6738 197.145 38.7931V34.2122H195.088V30.4853H197.145V28.0265L201.001 26.8619ZM236.938 31.5465C236.021 30.5975 234.877 30.123 233.506 30.123C231.854 30.123 230.641 30.6319 229.869 31.6496L229.83 31.7018V30.4854H225.973V43.4257H229.83V36.3603C229.83 35.4803 230.044 34.816 230.472 34.3674C230.9 33.9188 231.483 33.6945 232.22 33.6945C232.871 33.6945 233.408 33.8972 233.827 34.3027C234.235 34.6959 234.445 35.2554 234.457 35.9811L234.458 36.0497V43.4257H238.313V35.4803C238.313 33.8066 237.855 32.4953 236.938 31.5464V31.5465ZM66.256 30.1478C67.7298 30.1478 68.9204 30.6223 69.8295 31.5712C70.7378 32.5202 71.1919 33.8229 71.1919 35.4793V43.4247H68.4153V35.764L68.4144 35.6881C68.4015 34.7589 68.1442 34.0422 67.6443 33.5382C67.1297 33.0206 66.4269 32.7618 65.5359 32.7618C64.5586 32.7618 63.7703 33.068 63.1702 33.6806C62.5711 34.2931 62.2706 35.2291 62.2706 36.4886V43.4247H59.494V30.4843H62.2706V32.1407L62.3095 32.0807C63.1512 30.7921 64.4662 30.1479 66.256 30.1479V30.1478ZM209.12 43.4249V30.4845H205.263V43.4249H209.12ZM32.5409 25.3085V32.1412L32.5794 32.0812C33.4211 30.7926 34.7366 30.1483 36.5258 30.1483C37.9997 30.1483 39.1909 30.6228 40.0993 31.5718C41.0077 32.5207 41.4619 33.8234 41.4619 35.4798V43.4252H38.6853V35.7645L38.6847 35.6886C38.6716 34.7594 38.4147 34.0427 37.9141 33.5387C37.3998 33.0211 36.6971 32.7623 35.8059 32.7623C34.8289 32.7623 34.0406 33.0685 33.4407 33.6811C32.8408 34.2936 32.5409 35.2296 32.5409 36.4892V43.4252H29.7643V25.3089H32.5409V25.3085ZM92.0081 43.4249V30.4845H89.2323V43.4249H92.0081ZM101.413 30.1478C102.887 30.1478 104.077 30.6223 104.986 31.5712C105.895 32.5202 106.349 33.8229 106.349 35.4793V43.4247H103.572V35.764L103.571 35.6881C103.558 34.7589 103.301 34.0422 102.8 33.5382C102.287 33.0206 101.584 32.7618 100.693 32.7618C99.7155 32.7618 98.9272 33.068 98.3272 33.6806C97.7271 34.2931 97.4275 35.2291 97.4275 36.4886V43.4247H94.6509V30.4843H97.4275V32.1407L97.4664 32.0807C98.3082 30.7921 99.6231 30.1479 101.413 30.1479V30.1478ZM136.633 29.294V25.3083H125.449V43.4246H136.762V39.439H129.563V36.2297H135.991V32.2958H129.563V29.2936H136.633V29.294ZM49.9924 32.8145C48.8269 32.8145 47.859 33.207 47.088 33.9921C46.3162 34.7772 45.9311 35.765 45.9311 36.9555C45.9311 38.146 46.3162 39.1381 47.088 39.9318C47.859 40.7082 48.8269 41.0964 49.9924 41.0964C51.158 41.0964 52.1267 40.7038 52.8977 39.9189C53.6687 39.1338 54.0547 38.146 54.0547 36.9555C54.0547 35.765 53.6687 34.7772 52.8977 33.9921C52.1267 33.207 51.158 32.8145 49.9924 32.8145ZM111.987 33.9272C112.766 33.1508 113.739 32.7626 114.905 32.7626C116.07 32.7626 117.043 33.1508 117.822 33.9272C118.602 34.7037 118.992 35.6699 118.992 36.8259C118.992 37.9819 118.602 38.9482 117.822 39.7246C117.043 40.501 116.07 40.8892 114.905 40.8892C113.739 40.8892 112.762 40.501 111.974 39.7246C111.203 38.9482 110.817 37.9819 110.817 36.8259C110.817 35.6699 111.207 34.7037 111.987 33.9272ZM79.7524 32.7626C78.5868 32.7626 77.6138 33.1508 76.8341 33.9272C76.0545 34.7037 75.6643 35.6699 75.6643 36.8259C75.6643 37.9819 76.0502 38.9482 76.8212 39.7246C77.6095 40.501 78.5868 40.8892 79.7524 40.8892C80.9171 40.8892 81.8901 40.501 82.6697 39.7246C83.4494 38.9482 83.8396 37.9819 83.8396 36.8259C83.8396 35.6699 83.4494 34.7037 82.6697 33.9272C81.8901 33.1508 80.9171 32.7626 79.7524 32.7626ZM184.74 34.652C185.305 34.0826 186.043 33.7979 186.951 33.7979C187.859 33.7979 188.596 34.0826 189.162 34.652C189.727 35.2214 190.01 35.9892 190.01 36.9554C190.01 37.9216 189.727 38.6894 189.162 39.2588C188.596 39.8281 187.859 40.1129 186.951 40.1129C186.043 40.1129 185.305 39.8281 184.74 39.2588C184.174 38.6894 183.892 37.9216 183.892 36.9554C183.892 35.9892 184.174 35.2214 184.74 34.652ZM144.394 33.7979C143.486 33.7979 142.749 34.0826 142.184 34.652C141.618 35.2214 141.335 35.9892 141.335 36.9554C141.335 37.9216 141.618 38.6894 142.184 39.2588C142.749 39.8281 143.486 40.1129 144.394 40.1129C145.303 40.1129 146.039 39.8281 146.605 39.2588C147.17 38.6894 147.454 37.9216 147.454 36.9554C147.454 35.9892 147.17 35.2214 146.605 34.652C146.039 34.0826 145.303 33.7979 144.394 33.7979ZM215.445 34.755C216.01 34.1856 216.713 33.9009 217.553 33.9009C218.393 33.9009 219.095 34.1856 219.661 34.755C220.226 35.3244 220.51 36.0576 220.51 36.9549C220.51 37.852 220.226 38.5854 219.661 39.1548C219.095 39.7241 218.393 40.0088 217.553 40.0088C216.713 40.0088 216.01 39.7241 215.445 39.1548C214.879 38.5854 214.596 37.852 214.596 36.9549C214.596 36.0576 214.879 35.3244 215.445 34.755ZM91.8777 25.5012C91.535 25.1475 91.1153 24.9707 90.618 24.9707C90.1216 24.9707 89.7011 25.1475 89.3584 25.5012C89.0156 25.855 88.8447 26.2734 88.8447 26.7564C88.8447 27.2396 89.0199 27.658 89.3713 28.0117C89.7227 28.3654 90.138 28.5422 90.618 28.5422C91.0981 28.5422 91.5099 28.3697 91.8527 28.0246C92.2118 27.6623 92.3923 27.2396 92.3923 26.7564C92.3923 26.2734 92.2205 25.855 91.8777 25.5012Z" fill="#727272"/>
<path id="Vector_2" fill-rule="evenodd" clip-rule="evenodd" d="M199.611 58.2576C201.278 58.2576 202.628 57.7593 203.662 56.7628C204.698 55.7662 205.215 54.4838 205.215 52.9154V52.1313H199.497V53.8139H203.32C203.145 54.609 202.739 55.2434 202.102 55.7173C201.465 56.191 200.64 56.4279 199.628 56.4279C198.364 56.4279 197.343 56.0412 196.564 55.268C195.786 54.4947 195.396 53.5199 195.396 52.3437C195.396 51.1674 195.783 50.1871 196.556 49.403C197.329 48.6188 198.315 48.2267 199.513 48.2267C200.254 48.2267 200.924 48.3928 201.523 48.725C202.121 49.0572 202.574 49.4956 202.878 50.0401L204.496 49.1089C204.006 48.2812 203.32 47.6223 202.437 47.1321C201.556 46.6421 200.58 46.397 199.513 46.397C197.814 46.397 196.39 46.9716 195.241 48.1205C194.092 49.2696 193.518 50.6718 193.518 52.3273C193.518 53.9937 194.092 55.3987 195.241 56.5422C196.39 57.6859 197.847 58.2576 199.611 58.2576ZM208.376 58.0467V53.9297C208.376 53.0911 208.627 52.4893 209.128 52.1245C209.628 51.7596 210.216 51.599 210.891 51.6425V49.7311C209.661 49.7311 208.823 50.2376 208.376 51.2505V49.8781H206.612V58.0467H208.376ZM218.538 57.0162C217.704 57.844 216.683 58.2579 215.474 58.2579C214.276 58.2579 213.258 57.844 212.42 57.0162C211.58 56.1885 211.162 55.1701 211.162 53.9612C211.162 52.7523 211.58 51.734 212.42 50.9062C213.258 50.0785 214.276 49.6646 215.474 49.6646C216.683 49.6646 217.704 50.0785 218.538 50.9062C219.371 51.734 219.788 52.7523 219.788 53.9612C219.788 55.1701 219.371 56.1885 218.538 57.0162ZM215.475 56.543C214.756 56.543 214.152 56.2979 213.661 55.8078C213.172 55.3177 212.926 54.7024 212.926 53.9618C212.926 53.2211 213.172 52.6057 213.661 52.1157C214.152 51.6255 214.756 51.3805 215.475 51.3805C216.193 51.3805 216.798 51.6255 217.288 52.1157C217.779 52.6057 218.023 53.2211 218.023 53.9618C218.023 54.7024 217.779 55.3177 217.288 55.8078C216.798 56.2979 216.193 56.543 215.475 56.543ZM226.69 57C226.156 57.8387 225.313 58.2579 224.158 58.2579C223.221 58.2579 222.464 57.9584 221.887 57.3594C221.31 56.7604 221.022 55.9381 221.022 54.8926V49.8771H222.785V54.7128C222.785 55.3228 222.949 55.7911 223.276 56.1178C223.602 56.4446 224.049 56.6079 224.615 56.6079C225.236 56.6079 225.737 56.4146 226.118 56.028C226.5 55.6413 226.69 55.0505 226.69 54.2554V49.8771H228.454V58.0456H226.69V57ZM232.073 61.3129V56.8855C232.738 57.8004 233.69 58.2579 234.931 58.2579C236.054 58.2579 237.012 57.844 237.807 57.0162C238.603 56.1885 239 55.1701 239 53.9612C239 52.7632 238.603 51.7476 237.807 50.9144C237.012 50.0812 236.054 49.6646 234.931 49.6646C233.69 49.6646 232.738 50.1275 232.073 51.0533V49.877H230.308V61.3125H232.073V61.3129ZM232.808 55.8396C233.298 56.3298 233.914 56.5748 234.654 56.5748C235.395 56.5748 236.011 56.327 236.5 55.8315C236.991 55.3359 237.236 54.7124 237.236 53.9609C237.236 53.2094 236.991 52.5859 236.5 52.0903C236.011 51.5948 235.395 51.347 234.654 51.347C233.914 51.347 233.298 51.5948 232.808 52.0903C232.318 52.5859 232.073 53.2094 232.073 53.9609C232.073 54.7124 232.318 55.3387 232.808 55.8396Z" fill="#727272"/>
<path id="Vector_3" d="M190.876 56.2251H11.8193V58.2598H190.876V56.2251Z" fill="url(#paint0_linear_904_30078)"/>
</g>
</g>
<defs>
<linearGradient id="paint0_linear_904_30078" x1="184.778" y1="56.2596" x2="11.8193" y2="56.2596" gradientUnits="userSpaceOnUse">
<stop stop-color="#898989"/>
<stop offset="1" stop-color="#2B246C" stop-opacity="0.01"/>
</linearGradient>
</defs>
</svg>
