<svg width="169" height="96" viewBox="0 0 169 96" fill="none" xmlns="http://www.w3.org/2000/svg">
<g id="emop.svg" clip-path="url(#clip0_904_30071)">
<g id="Mask group">
<mask id="mask0_904_30071" style="mask-type:luminance" maskUnits="userSpaceOnUse" x="0" y="0" width="169" height="95">
<path id="a" d="M169 0.52832H0V94.5806H169V0.52832Z" fill="white"/>
</mask>
<g mask="url(#mask0_904_30071)">
<g id="Group">
<path id="Vector" d="M3.58346 51.2057C3.63749 51.275 3.69151 51.3443 3.74553 51.3964C16.206 69.4651 37.5417 84.6229 61.3128 88.8166C79.6398 92.0596 99.5163 88.479 114.205 81.235L114.518 81.0799C114.539 80.7899 114.583 80.4979 114.649 80.2055C115.154 77.9982 116.864 76.3426 118.97 75.7391C117.765 77.6533 117.926 80.516 119.601 82.9475C120.88 84.7927 122.716 85.9654 124.535 86.293C123.13 87.3105 121.276 87.7589 119.42 87.3622C118.065 87.0792 116.912 86.3954 116.064 85.469L115.95 85.341L115.688 85.4753C106.542 90.1239 98.5735 92.2288 88.8247 93.7443C70.2043 96.6392 47.0067 91.8134 30.8349 82.4716C18.3014 75.2443 7.67241 65.4102 0 52.5919C0.018008 52.4705 0.018008 52.3666 0.018008 52.2625C0.0720329 50.9107 2.30511 49.5588 3.58362 51.2053L3.58346 51.2057ZM116.177 82.9654C116.465 85.0175 118.59 86.6557 120.733 86.5006C120.93 86.5006 121.165 86.4316 121.237 86.2592C121.309 86.0522 121.147 85.8452 120.966 85.7245C120.552 85.4486 120.048 85.3624 119.58 85.2244C118.23 84.8451 117.023 84.0345 116.177 82.9654ZM141.635 30.0949C142.391 30.9096 144.462 32.7121 146.587 33.544C148.244 35.2251 148.191 38.7608 147.289 42.7298C146.713 45.2602 145.579 50.5119 144.39 53.9265C147.02 47.2884 148.334 40.4597 148.946 34.0643C148.604 34.0296 148.334 33.9949 148.1 33.943C150.747 34.2896 152.512 33.6483 155.033 33.371C155.393 33.5616 155.447 34.0123 155.447 34.4109C155.447 35.3122 155.34 36.2134 155.123 37.0973C155.427 35.9111 155.76 34.629 155.969 33.4092L156.04 32.958L156.099 32.9272C156.717 32.5996 157.349 32.2612 157.547 32.4255L157.572 32.4524C157.644 32.5044 157.716 32.5737 157.788 32.6258C157.969 33.1803 157.987 34.1337 158.005 34.6536C158.023 35.4855 158.041 36.1615 157.969 36.8374C157.572 40.7197 157.392 44.2381 156.402 48.0161C157.951 43.5444 158.833 38.8475 159.031 34.1334C159.031 33.9947 159.103 33.5441 159.013 33.5094C158.887 33.4401 158.833 33.4054 158.779 33.3707C159.085 33.5613 159.409 33.7001 159.805 33.7694C161.336 33.9427 162.921 33.3534 164.271 33.492C165.982 33.6654 165.964 36.0918 168.161 34.8786C169.98 33.8733 168.305 42.3139 168.036 43.2672C167.044 46.6815 166.414 50.3386 164.938 53.597C161.66 60.7898 157.465 67.4275 151.99 73.2162C146.587 78.9184 137.421 84.5516 129.533 86.1628C123.375 87.4107 115.307 81.5525 120.475 74.2559C124.329 68.8137 131.262 65.7286 135.368 60.1994C139.582 54.532 141.905 48.5869 142.229 41.5848C142.301 40.0423 141.635 30.0937 141.635 30.0937V30.0949ZM131.802 68.5538L131.373 68.9063C128.759 70.9851 125.533 72.4499 122.888 74.5681C122.186 75.14 121.502 75.7985 121.088 76.5959C120.691 77.3931 120.584 78.381 121.016 79.1782C121.07 77.4624 121.466 76.7691 122.186 75.9026C122.942 75.0013 124.113 74.2907 125.085 73.6321C127.426 72.0375 129.75 70.443 131.802 68.5538ZM133.675 66.6646C133.081 67.3233 132.451 67.9472 131.802 68.5538C132.487 67.9819 133.117 67.3579 133.675 66.6646ZM1.17189 51.448C0.57761 51.8813 0.757699 52.7652 1.02782 53.4412C2.09034 56.0583 3.65701 58.4501 5.63792 60.4953C4.01713 58.3634 2.50449 56.0583 2.03622 53.4585C2.0002 53.1639 1.98219 52.7999 2.23431 52.6266C2.41439 52.5053 2.66651 52.4706 2.8466 52.5746C3.02668 52.6786 3.58494 52.9733 3.71099 53.1465C3.72899 52.7133 3.24278 51.6907 2.8646 51.448C2.27033 51.0667 1.74806 51.032 1.17184 51.448H1.17189ZM144.395 53.9259L144.192 54.4326C143.988 54.9387 143.783 55.4425 143.567 55.9364C143.836 55.3991 144.125 54.7058 144.395 53.9259ZM134.436 16.1934C136.854 16.8169 138.713 18.7915 139.742 20.9913C140.665 22.9998 141.017 25.2105 141.318 27.4124L141.403 28.041C138.803 28.041 136.187 27.5734 133.768 26.6727C132.089 26.0491 130.446 25.183 129.309 23.832C128.173 22.4809 127.594 20.593 128.209 18.9648C129.038 16.6783 131.999 15.5698 134.436 16.1934ZM130.555 17.9081C130.23 18.116 129.905 18.4105 129.869 18.7915C129.815 19.4151 130.537 19.8481 131.169 19.8308C131.818 19.8135 132.396 19.4844 132.992 19.2765C134.689 18.6876 136.71 19.1206 137.974 20.3158C137.269 19.0686 136.151 18.0294 134.779 17.527C133.407 17.0248 131.782 17.1287 130.555 17.9081ZM153.569 13.2096C154.061 13.3815 154.481 13.6909 154.772 14.1035C155.702 15.4099 154.954 17.2837 153.624 18.212C152.294 19.1402 150.598 19.398 148.977 19.6043C148.867 18.0572 148.941 16.5788 149.615 15.1693C150.289 13.7597 152.039 12.6767 153.569 13.2096ZM152.039 13.5878C151.783 13.605 151.437 13.7597 151.2 13.9488C150.8 14.241 150.635 14.602 150.763 15.0661C150.945 14.7051 151.419 14.327 152.294 14.1722C152.913 14.0691 153.569 14.3098 153.824 14.6364C153.898 14.3441 153.405 13.8972 153.15 13.7253C152.859 13.5534 152.403 13.5534 152.039 13.5878ZM141.998 0.725779C143.352 1.26273 144.111 2.7177 144.219 4.12078C144.309 5.54114 143.858 6.90947 143.424 8.26052C143.148 9.06884 142.879 9.88482 142.613 10.6983L142.216 11.9153L142.143 11.8113C140.717 10.6681 139.237 9.50761 138.244 7.98338C137.251 6.47643 136.764 4.51916 137.469 2.85632C138.172 1.19347 140.266 0.0502539 141.998 0.725779ZM140.031 1.12416C139.869 1.24542 139.742 1.43595 139.742 1.62648C139.742 2.19808 140.608 2.26736 141.205 2.31933C142.328 2.42037 143.383 3.42191 143.241 4.48025L143.226 4.57108L143.28 4.5018C143.244 3.54913 143.208 2.52716 142.631 1.71311C142.07 0.916331 140.79 0.500582 140.031 1.12418V1.12416ZM166.852 36.4812C167.013 36.535 166.977 36.517 167.175 36.517C167.302 36.517 167.446 36.4274 167.553 36.4096C167.338 53.1994 157.397 71.1372 145.493 80.1321C158.604 68.6639 166.725 51.3006 166.852 36.4808V36.4812Z" fill="#727272"/>
<path id="Vector_2" fill-rule="evenodd" clip-rule="evenodd" d="M33.6657 44.8954C33.5111 44.2368 33.2639 43.6863 32.9287 43.254C32.4696 42.6638 31.8872 42.2244 31.1968 41.9474C29.7599 41.3724 27.8235 41.3765 26.1444 41.9877C25.3052 42.2933 24.5393 42.7509 23.8671 43.3475C23.3904 43.7711 22.9529 44.2894 22.562 44.8954H33.6657ZM38.3714 42.568C38.8101 43.8891 38.9748 45.4037 38.8606 47.0697C38.8288 47.8684 38.4595 48.3768 38.1549 48.659C37.7236 49.0587 37.1753 49.2614 36.5254 49.2614H21.2271C21.0719 50.7971 21.485 52.0563 22.4811 53.0964C23.6049 54.271 25.2181 54.8664 27.2756 54.8664C29.1687 54.8664 31.0199 54.3054 32.7774 53.1999C33.8774 52.5401 34.8541 52.643 35.5411 53.4804L35.7973 53.8462C36.1536 54.3253 36.2632 54.8746 36.1149 55.4665C35.9717 56.0374 35.5836 56.5761 34.9614 57.0688C32.4677 58.9006 29.6176 59.8216 26.4715 59.8216C24.6937 59.8216 23.0686 59.5258 21.6419 58.9432C20.2077 58.3578 19.0185 57.5222 18.1071 56.461C17.1952 55.3998 16.5582 54.1506 16.2145 52.7487C15.8724 51.3522 15.8201 49.8546 16.0599 48.2985C16.2997 46.7418 16.8219 45.2301 17.6127 43.8056C18.4049 42.378 19.4196 41.1165 20.6282 40.0571C21.8351 38.9983 23.2243 38.1562 24.7578 37.5544C26.2902 36.9537 27.8744 36.6493 29.4676 36.6493C30.8023 36.6493 32.0813 36.8643 33.2699 37.2886C34.4672 37.7168 35.516 38.3759 36.3883 39.2478C37.2638 40.1237 37.9309 41.2403 38.3718 42.568H38.3714ZM75.9037 29.1524C77.152 29.1524 77.8185 29.8535 77.7328 31.0753L76.0678 56.9485C75.9985 57.622 75.7551 58.1496 75.3424 58.5394C74.9211 58.9377 74.3724 59.1403 73.7116 59.1403H72.3535C71.0795 59.1403 70.3976 58.4392 70.4833 57.2175L71.834 38.749L61.244 57.263C60.665 58.2507 59.803 58.7698 58.7485 58.7698H58.0488C57.0212 58.7698 56.3386 58.2507 56.074 57.2687L51.3367 38.7395L46.8063 57.2165C46.5045 58.4389 45.6162 59.14 44.3685 59.14H43.0104C42.356 59.14 41.8666 58.9414 41.5574 58.5494C41.247 58.1585 41.1607 57.6269 41.3013 56.9699L47.8694 31.0712C48.1696 29.8534 49.0424 29.1523 50.2644 29.1523H52.4455C53.507 29.1523 54.1917 29.6771 54.425 30.6689L59.6698 50.8606L71.2691 30.6594C71.8858 29.6665 72.7443 29.1531 73.7635 29.1531H75.9035L75.9037 29.1524ZM93.2224 41.6015C92.6349 41.6015 91.9785 41.719 91.2712 41.9504C90.5797 42.1765 89.8792 42.5693 89.1899 43.1181C88.4974 43.6704 87.854 44.3986 87.2783 45.2817C86.7152 46.1473 86.3432 47.1478 86.1736 48.2548C86.004 49.3623 86.1075 50.468 86.4818 51.541C86.8499 52.5995 87.4774 53.4252 88.3486 53.9969C90.1286 55.1651 92.2556 55.1353 94.3379 53.9969C95.3832 53.4259 96.2643 52.5995 96.9574 51.541C97.6609 50.4669 98.1034 49.361 98.2733 48.2548C98.4423 47.1478 98.3398 46.0338 97.9676 44.9439C97.6011 43.8743 96.9678 43.0422 96.0858 42.4712C95.1943 41.8943 94.2304 41.6015 93.2224 41.6015ZM101.507 40.0509C102.398 41.1112 103.036 42.3642 103.403 43.775C103.771 45.1894 103.838 46.682 103.603 48.2127C103.364 49.7707 102.837 51.2781 102.037 52.6923C101.237 54.1038 100.215 55.3568 98.9996 56.4164C97.7862 57.473 96.42 58.3135 94.94 58.9137C93.4536 59.5162 91.9367 59.822 90.4305 59.822C88.9249 59.822 87.5079 59.5238 86.2189 58.9359C84.9291 58.3485 83.8324 57.5058 82.9576 56.4316C82.0847 55.3598 81.456 54.1014 81.0902 52.6923C80.7232 51.2792 80.6576 49.772 80.8968 48.2127C81.1314 46.6809 81.6561 45.1882 82.4567 43.775C83.255 42.3654 84.2688 41.1129 85.4702 40.0539C86.6689 38.9967 88.0213 38.1557 89.4902 37.5543C92.4359 36.3486 95.6082 36.3479 98.2135 37.5531C99.5104 38.1544 100.618 38.9949 101.507 40.0509ZM130.848 43.0558C131.141 44.4573 131.17 45.9514 130.933 47.4967C130.697 49.042 130.21 50.5362 129.487 51.9371C128.762 53.3432 127.835 54.5921 126.737 55.6493C125.632 56.71 124.362 57.554 122.961 58.1568C121.554 58.761 120.066 59.0673 118.533 59.0673C117.025 59.0673 115.63 58.7458 114.387 58.1132C113.55 57.6862 112.822 57.0868 112.213 56.3226L110.744 65.9081C110.647 66.5402 110.384 67.0528 109.961 67.4308C109.536 67.8094 109.011 68.0005 108.399 68.0005H107.182C106.575 68.0005 106.104 67.8123 105.783 67.4419C105.456 67.0627 105.339 66.5471 105.438 65.9081L109.634 38.5216C109.732 37.8832 110.006 37.3672 110.45 36.988C110.884 36.6175 111.413 36.4293 112.02 36.4293H113.237C113.85 36.4293 114.316 36.6204 114.624 36.9978C114.931 37.377 115.038 37.8896 114.942 38.5216L114.911 38.7127C115.754 37.9491 116.666 37.3497 117.634 36.9227C119.071 36.289 120.564 35.968 122.073 35.968C123.604 35.968 124.999 36.2662 126.22 36.8551C127.442 37.4452 128.456 38.2828 129.234 39.3441C130.01 40.4013 130.553 41.6502 130.848 43.0557V43.0558ZM125.627 47.4967C125.836 46.1238 125.745 44.9221 125.354 43.9243C124.963 42.9306 124.372 42.1634 123.596 41.6456C122.82 41.1278 121.85 40.8657 120.714 40.8657C118.884 40.8657 117.337 41.4784 115.986 42.739C114.624 44.0111 113.804 45.5698 113.483 47.5043C113.214 49.4236 113.555 50.9823 114.528 52.2539C115.492 53.515 116.851 54.1278 118.681 54.1278C119.818 54.1278 120.869 53.8651 121.802 53.3478C122.737 52.8306 123.563 52.0634 124.258 51.0685C124.956 50.0713 125.416 48.869 125.627 47.4967Z" fill="#727272" stroke="#727272" stroke-width="1.1417"/>
</g>
</g>
</g>
</g>
<defs>
<clipPath id="clip0_904_30071">
<rect width="169" height="94.9438" fill="white" transform="translate(0 0.52832)"/>
</clipPath>
</defs>
</svg>
