<svg width="110" height="69" viewBox="0 0 110 69" fill="none" xmlns="http://www.w3.org/2000/svg">
<path id="Vector" d="M27.4405 36.9337C27.8411 35.6759 28.2425 34.4189 28.6431 33.1631C29.2142 31.3789 29.7966 29.5977 30.3555 27.8107C30.373 27.6809 30.4429 27.5635 30.5514 27.4858C30.659 27.4082 30.7945 27.3772 30.9266 27.3998C32.2035 27.4204 33.4839 27.4263 34.7608 27.3998C35.1395 27.3998 35.2663 27.5348 35.3625 27.8517C36.2721 30.7059 37.1912 33.5582 38.1209 36.4085C38.1813 36.5934 38.1542 36.8339 38.4209 36.9953C39.0462 34.8327 39.6654 32.6877 40.2908 30.5397C40.5575 29.6212 40.8339 28.7027 41.105 27.7842C41.1645 27.5847 41.1951 27.4087 41.4986 27.4116C43.3011 27.4263 45.1045 27.4116 46.9857 27.4116C46.5589 28.8788 46.1619 30.2727 45.7447 31.6664C44.5544 35.6338 43.3606 39.5992 42.1624 43.5627C42.0601 43.9001 41.9403 44.2347 41.8353 44.5721C41.4382 45.8222 41.4382 45.8222 40.0774 45.8222C38.9054 45.8222 37.7335 45.8046 36.5616 45.8222C36.1557 45.8222 35.9869 45.7166 35.861 45.3175C34.9199 42.3831 33.9439 39.4487 32.9757 36.538C32.9338 36.4446 32.8865 36.3535 32.8349 36.265C32.5341 37.1894 32.2341 38.0256 31.9691 38.8503C31.2484 41.0247 30.5208 43.1932 29.8237 45.3734C29.7127 45.7227 29.5684 45.8253 29.2229 45.8224C27.7956 45.8048 26.3683 45.7872 24.9409 45.8224C24.4031 45.837 24.1835 45.6786 24.0392 45.168C23.2215 42.351 22.3592 39.5457 21.5152 36.7345C20.6432 33.8236 19.787 30.9097 18.8941 28.0044C18.741 27.5027 18.8075 27.3735 19.3602 27.3853C20.9135 27.4205 22.4702 27.4146 24.027 27.3853C24.4564 27.3853 24.5981 27.532 24.7065 27.9076C25.5628 30.9065 26.44 33.8997 27.3119 36.8952L27.4405 36.9334V36.9337ZM61.2598 7.35785C63.0116 4.83421 66.3683 4.69337 68.6973 5.47394C71.2423 6.32493 72.4983 8.19704 72.8769 10.7235C72.9924 11.6542 73.0387 12.5918 73.0151 13.5289C73.0151 16.8418 73.0151 20.1547 73.0309 23.4678C73.0309 24.0107 72.8708 24.1076 72.3601 24.0958C70.7858 24.0606 69.2081 24.0665 67.6303 24.0958C67.1467 24.0958 66.9875 23.999 66.9936 23.4913C67.0172 20.0111 66.9936 16.5309 66.9936 13.0511C66.9936 11.4489 66.0919 10.4101 64.5894 10.2575C62.8918 10.0874 61.6595 10.9647 61.3377 12.5611C61.266 12.9285 61.2301 13.302 61.2327 13.6761V23.5535C61.2327 23.9996 61.1094 24.1023 60.6677 24.0934C59.027 24.0671 57.3863 24.073 55.7482 24.0934C55.3546 24.0934 55.2016 24.0289 55.2016 23.5887C55.2173 15.8987 55.2173 8.20892 55.2016 0.518581C55.2016 0.12834 55.31 0.0285256 55.7001 0.0344225C57.3828 0.0549752 59.0664 0.0579237 60.7491 0.0344225C61.1636 0.0344225 61.2327 0.163549 61.2292 0.530288C61.2511 2.75457 61.2598 4.97886 61.2598 7.35872V7.35785ZM80.3896 65.9199C79.2658 67.3864 77.9049 68.238 76.231 68.5077C74.6287 68.8025 72.974 68.6464 71.4592 68.0584C69.3821 67.2225 68.4542 65.5322 68.0212 63.4958C67.7869 62.3508 67.6679 61.1861 67.6662 60.0185C67.6513 56.5999 67.6662 53.1814 67.6513 49.7629C67.6513 49.314 67.7353 49.1555 68.2373 49.176C69.878 49.2112 71.5187 49.2025 73.1594 49.176C73.5836 49.176 73.6859 49.2875 73.6824 49.6925C73.665 52.715 73.6824 55.7373 73.6824 58.76C73.672 59.5104 73.7349 60.26 73.8687 60.9989C74.1696 62.5541 75.0407 63.364 76.4776 63.455C78.3405 63.5724 79.5605 62.8388 80.0564 61.2982C80.3135 60.3933 80.4281 59.4552 80.3958 58.5164V49.7629C80.3958 49.311 80.4797 49.1759 80.9791 49.1759C82.5988 49.2111 84.2186 49.2024 85.8348 49.1759C86.2555 49.1759 86.4208 49.2463 86.4182 49.71C86.4024 55.6922 86.4024 61.6748 86.4182 67.6568C86.4182 68.0765 86.2922 68.1849 85.8768 68.1788C84.2159 68.1571 82.5542 68.1571 80.8916 68.1788C80.4832 68.1788 80.3783 68.0557 80.3993 67.6802C80.4106 67.1581 80.3896 66.6326 80.3896 65.9198V65.9199ZM41.3901 18.4467H43.8818C44.1608 18.4467 44.2754 18.5201 44.3594 18.7988C44.7678 20.1311 46.6132 20.6064 47.6644 19.6792C47.9075 19.4706 48.051 19.1722 48.0588 18.8562C48.0667 18.5403 47.939 18.2355 47.7073 18.0154C47.298 17.5899 46.7452 17.4109 46.2047 17.2084C45.0774 16.78 43.9387 16.3839 42.8026 15.976C41.1592 15.3891 39.7284 14.5088 38.9833 12.8861C38.0816 10.9523 38.8031 8.38765 40.5943 6.82357C43.3702 4.40269 48.344 4.25891 51.238 6.53011C52.5717 7.58063 53.1944 9.00388 53.4078 10.6383C53.4524 10.9787 53.3387 11.0609 53.002 11.0579C51.3412 11.0422 49.6803 11.0422 48.0195 11.0579C47.7186 11.0579 47.563 10.9846 47.5358 10.6559C47.4842 10.025 47.0216 9.77561 46.4566 9.69634C45.8164 9.62003 45.1552 9.59661 44.7346 10.2187C44.4162 10.6882 44.5692 11.2047 45.1404 11.6155C45.91 12.17 46.8204 12.399 47.7186 12.6513C49.1285 13.0445 50.5199 13.4583 51.7758 14.2418C54.285 15.8028 54.4083 18.8517 53.5215 20.8471C52.6565 22.7985 51.0517 23.9487 49.0139 24.4858C46.0333 25.2692 43.1874 25.0198 40.6695 23.0978C39.2448 22.0121 38.6282 20.4861 38.3938 18.7784C38.3466 18.4379 38.5294 18.4555 38.7576 18.4555L41.3901 18.4467ZM14.2692 62.1051C15.5286 63.4051 16.7784 64.7079 18.0501 65.9904C18.3142 66.2575 18.2093 66.3772 17.9897 66.5775C16.5397 67.8194 14.7267 68.5868 12.8061 68.7689C9.71965 69.1245 6.8169 68.5929 4.26836 66.777C1.42333 64.7461 0.128073 61.9143 0.203288 58.5222C0.320482 53.0906 4.07946 49.1824 9.60596 48.5633C12.088 48.2845 14.4442 48.5927 16.6315 49.8016C18.5311 50.8521 18.5188 50.8638 17.046 52.3633C16.1181 53.3082 15.2015 54.2648 14.2789 55.2156C12.8751 53.6692 11.1863 53.4198 9.31734 54.077C7.44836 54.7343 6.58863 56.1106 6.38135 57.9504C6.21781 59.1552 6.4452 60.3799 7.0338 61.4512C8.23548 63.5904 12.1597 64.6027 14.2692 62.1055V62.1051ZM16.2467 18.8049V30.2494C16.2554 31.208 16.1618 32.1649 15.9677 33.1045C15.5348 35.1263 14.2937 36.3558 12.2498 36.8488C10.784 37.2039 9.29634 37.2009 7.80605 37.198C7.50519 37.198 7.45098 37.0894 7.45098 36.8312V32.9548C7.45098 32.6614 7.54718 32.5441 7.85416 32.5675C8.10866 32.587 8.36491 32.587 8.62029 32.5675C9.35494 32.5603 9.97678 32.0352 10.0896 31.3262C10.1841 30.8776 10.2269 30.4198 10.2155 29.9618V6.44503C10.2155 5.88751 10.3389 5.71147 10.9336 5.72907C12.4877 5.77599 14.0445 5.76723 15.6012 5.72907C16.1234 5.72907 16.2773 5.8347 16.2738 6.36872C16.2353 10.5062 16.2467 14.6555 16.2467 18.8044V18.8049ZM94.2221 51.083C95.4937 49.3399 97.2035 48.8822 99.1023 48.8235C99.3699 48.8235 99.4748 48.8793 99.4722 49.1639C99.4722 50.7895 99.4538 52.4152 99.4722 54.0379C99.4722 54.4312 99.2763 54.393 98.9999 54.3988C97.2543 54.4312 95.7334 54.9183 94.7573 56.4706C94.3769 57.1016 94.1897 57.8254 94.216 58.5569V67.5567C94.216 68.038 94.1049 68.1906 93.5915 68.1785C91.9744 68.1429 90.3547 68.1577 88.7349 68.1785C88.3562 68.1785 88.1787 68.1342 88.1822 67.6859C88.1997 61.6641 88.1997 55.6431 88.1822 49.6212C88.1822 49.2603 88.2898 49.1752 88.6448 49.1781C90.3477 49.1957 92.0505 49.1957 93.7533 49.1781C94.1259 49.1781 94.2256 49.2926 94.2037 49.6359C94.2011 50.0613 94.2221 50.4986 94.2221 51.0826V51.083ZM38.9684 57.5768V47.6352C38.9684 47.1509 39.1066 47.0483 39.5692 47.0659C41.21 47.0953 42.8507 47.0894 44.4914 47.0659C44.8788 47.0659 44.9934 47.1568 44.9934 47.55C44.9812 54.2601 44.9812 60.9708 44.9934 67.683C44.9934 68.0819 44.864 68.1729 44.4827 68.1677C42.8419 68.1495 41.2012 68.1382 39.5605 68.1677C39.0672 68.1677 38.9588 68.0324 38.9588 67.5806C38.9772 64.2469 38.9684 60.9135 38.9684 57.5766V57.5768ZM108.712 63.7772C108.712 66.3828 106.69 68.4458 104.115 68.458C102.866 68.4493 101.673 67.9541 100.799 67.0835C99.9252 66.2128 99.4434 65.0374 99.46 63.8183C99.46 61.2037 101.456 59.1848 104.073 59.1672C106.69 59.1496 108.707 61.145 108.712 63.7772ZM109.8 22.2382C109.791 29.9459 109.788 37.6553 109.794 45.3674C109.794 45.7605 109.674 45.8487 109.289 45.8487C107.629 45.8271 105.968 45.8271 104.307 45.8487C103.905 45.8545 103.731 45.7694 103.779 45.3439C103.808 45.0005 103.779 44.6484 103.779 44.1467C102.153 46.1098 100.067 46.5148 97.8219 46.4032C93.2513 46.1744 89.7748 43.0257 89.1075 38.5772C88.7052 35.9039 89.0052 33.348 90.457 31.0005C92.6321 27.4617 97.4738 25.8389 101.381 27.3677C101.808 27.5499 102.217 27.7731 102.601 28.0338C102.967 28.2686 103.298 28.5415 103.673 28.835C103.758 28.6509 103.781 28.446 103.742 28.2481C103.742 26.2967 103.76 24.3365 103.742 22.3792C103.739 21.9597 103.802 21.7924 104.283 21.7924C105.963 21.8188 107.646 21.81 109.329 21.7924C109.68 21.7895 109.8 21.8716 109.8 22.2384V22.2382ZM27.5909 5.09281C33.9588 5.0517 37.6968 9.81428 37.7212 14.8384C37.7449 20.4754 33.3912 24.6629 27.5971 24.6543C21.8029 24.6455 17.4973 20.4816 17.4973 14.874C17.4973 9.2663 21.7942 5.09367 27.5909 5.09367V5.09281ZM27.6425 48.8708C33.4839 48.9002 37.7868 53.1082 37.709 58.8038C37.646 63.757 34.0043 68.4522 27.5402 68.4522C21.7881 68.4462 17.4729 64.1942 17.4938 58.6104C17.5148 53.0266 21.872 48.8448 27.6425 48.8708ZM56.3648 48.8708C62.6959 48.912 66.5187 53.5278 66.4348 58.8038C66.3499 64.0798 62.5402 68.5051 56.196 68.4436C49.8526 68.382 46.2135 63.7247 46.2135 58.6069C46.2196 52.9788 50.6126 48.8266 56.3648 48.8708ZM77.5831 26.8214C83.8941 26.7598 87.7703 31.4284 87.8096 36.5401C87.8481 41.6518 84.0471 46.4175 77.7151 46.382C71.9306 46.4084 67.5883 42.218 67.57 36.6424C67.5525 31.0671 71.8554 26.8769 77.5831 26.8205V26.8214ZM56.2056 26.8214C62.4108 26.7686 66.3919 31.2025 66.4374 36.534C66.4828 41.7836 62.6364 46.3846 56.3552 46.3846C50.5741 46.4139 46.21 42.2764 46.21 36.6511C46.2161 31.3663 50.1141 26.8708 56.2056 26.8205V26.8214ZM99.2553 41.288C102.015 41.3027 104.07 39.2809 104.066 36.546C104.088 35.3153 103.596 34.1291 102.702 33.261C101.808 32.3928 100.591 31.9176 99.3305 31.9449C98.0598 31.9056 96.8292 32.3799 95.9284 33.2558C95.0276 34.1316 94.536 35.3315 94.571 36.5725C94.571 39.2839 96.5511 41.288 99.2553 41.288ZM27.5909 63.2993H27.5944C30.1036 63.314 32.0924 61.2746 32.0985 58.6718C32.1047 56.069 30.157 54.0442 27.6207 54.0383C25.0852 54.0325 23.1165 56.0455 23.1139 58.6453C23.1104 61.2452 25.0817 63.2993 27.5909 63.2993ZM56.2712 63.2993C58.7506 63.3433 60.7937 61.2952 60.8269 58.7099C60.8601 56.1247 58.9098 54.0677 56.3823 54.0383C53.8556 54.009 51.8685 56.0396 51.8239 58.6043C51.7785 61.169 53.7471 63.2436 56.2712 63.2993ZM77.5595 41.2239H77.5534C80.0923 41.2914 82.1476 39.3635 82.2018 36.7489C82.256 34.1344 80.2724 32.0187 77.7816 31.96C75.2899 31.9013 73.274 33.9495 73.2198 36.5288C73.1656 39.1082 75.059 41.1564 77.5595 41.2239ZM56.2502 41.2239H56.2476C58.7891 41.2592 60.7849 39.2461 60.8269 36.6815C60.8689 34.1168 58.8801 32.0158 56.4033 31.957C53.9273 31.8984 51.8843 33.9671 51.8239 36.5288C51.7636 39.0906 53.741 41.1887 56.2502 41.2239ZM27.5734 19.5178V19.5208C30.0494 19.5588 32.0924 17.4901 32.102 14.8903C32.1108 12.2904 30.1456 10.2539 27.6425 10.2216C25.1386 10.1893 23.1253 12.217 23.1166 14.8228C23.1078 17.4285 25.0581 19.4767 27.5734 19.5178Z" fill="#727272"/>
</svg>
