<svg width="426" height="110" viewBox="0 0 426 110" fill="none" xmlns="http://www.w3.org/2000/svg">
<path d="M336.824 67.542V61.7515H326.569V36.0696H319.864V67.5422H336.824V67.542ZM309.171 56.3144H304.613L307.024 44.8216L309.171 56.3144ZM318.112 67.542L310.836 36.0694H303.343L296.024 67.542H302.291L303.606 61.3094H310.091L311.406 67.542H318.112ZM295.235 67.542V61.6189H284.543V53.7506H291.905V48.6231H284.543V41.7273H295.235V36.0693H277.837V67.5419H295.235V67.542ZM266.136 55.7398C266.136 58.834 264.69 60.6464 261.535 60.6464H257.591V35.7152H261.535C264.69 35.7152 266.136 37.5276 266.136 40.6219V55.739V55.7398ZM274.375 56.3586V40.4013C274.375 33.9477 270.124 28.7759 262.148 28.7759H249.352V67.5419H262.148C270.124 67.5419 274.375 62.9006 274.375 56.3585V56.3586Z" fill="#727272"/>
<path d="M248.216 67.2792V61.5278H237.782V36.0196H230.958V67.2781H248.216V67.2792ZM220.122 56.1277H215.44L217.893 44.7129L220.122 56.1277ZM229.174 67.2792L221.773 36.0207H214.146L206.699 67.2792H213.077L214.414 61.0887H221.014L222.352 67.2792H229.174ZM205.897 67.2792V61.3962H195.016V53.5814H202.507V48.4886H195.016V41.6397H205.897V36.0201H188.192V67.2786H205.897V67.2792ZM175.751 42.4299C175.751 44.7569 174.591 45.8544 172.407 45.8544H167.991V35.2738H172.763C174.948 35.2738 175.751 36.503 175.751 38.3909V42.4299ZM185.696 67.4984V65.0838C184.625 64.1618 184.046 62.9325 184.046 61.1325V54.8543C184.046 52.1763 182.351 49.3225 178.829 48.4884C182.351 47.5664 183.868 45.1956 183.868 42.0785V37.9077C183.868 32.3758 180.032 28.7759 173.7 28.7759H159.608V67.2788H167.991V51.5614H172.496C174.904 51.5614 175.974 53.3176 175.974 55.3371V61.6591C175.974 65.2592 177.268 67.5422 180.657 67.5422H185.696V67.4983V67.4984Z" fill="#727272"/>
<path d="M127.768 36.0611V49.0863H120.005V36.0611H113.334V67.4981H120.005V54.9149H127.768V67.5422H134.439V36.0611H127.768ZM138.931 36.0611V67.4981H156.2V61.5815H145.56V53.7224H152.886V48.6007H145.56V41.7128H156.2V36.0613H138.931V36.0611ZM89.1758 28.7759V35.8845H97.4611V67.4978H105.659V35.8845H113.858V28.7759H89.1763H89.1758Z" fill="#727272"/>
<path d="M165.916 82.3254H164.152V75.6407H167.327C167.988 75.6407 168.693 75.6407 169.266 75.9926C169.883 76.3444 170.236 77.0089 170.236 77.6735C170.236 78.4163 169.751 79.1199 168.914 79.3935L170.324 82.3645H168.384L167.239 79.7062H165.916V82.3254ZM165.916 78.4944H166.886C167.239 78.4944 167.636 78.5335 167.944 78.3771C168.208 78.2208 168.384 77.908 168.384 77.5953C168.384 77.3217 168.208 77.048 167.944 76.9308C167.636 76.7744 167.151 76.8135 166.797 76.8135H165.916V78.4944ZM173.146 76.8917V78.2599H176.011V79.5109H173.146V80.9963H176.76V82.2863H171.383V75.6017H176.76V76.8917H173.146ZM183.99 82.3254H182.094L181.653 80.9572H179.228L178.743 82.3254H177.201L179.625 75.6407H181.653L183.99 82.3254ZM181.212 79.7062L180.419 77.3608L179.625 79.7062H181.212ZM189.588 80.9963V82.3254H184.784V75.6407H186.546V80.9963H189.588ZM195.406 76.8917V78.2599H198.272V79.5109H195.406V80.9963H199.021V82.2863H193.643V75.6017H199.021V76.8917H195.406ZM203.87 77.5171C203.65 76.9699 203.253 76.7353 202.592 76.7353C202.107 76.7353 201.533 76.8525 201.533 77.3608C201.533 77.8299 202.195 77.9471 202.637 78.0254C203.253 78.1426 204.09 78.2599 204.62 78.5726C205.237 78.9245 205.59 79.4717 205.59 80.1362C205.59 80.8008 205.237 81.4263 204.664 81.8172C204.047 82.2472 203.253 82.3645 202.46 82.3645C201.05 82.3645 199.771 81.8172 199.418 80.5272L201.05 80.2145C201.27 80.9181 201.843 81.1527 202.637 81.1527C203.122 81.1527 203.827 80.9963 203.827 80.449C203.827 79.9017 202.988 79.7845 202.503 79.7062C201.182 79.4717 199.858 79.1199 199.858 77.6344C199.858 77.0089 200.123 76.4617 200.652 76.0708C201.182 75.6798 201.843 75.5234 202.548 75.5234C203.87 75.5234 204.928 75.9144 205.413 77.0871L203.87 77.5171ZM211.673 76.9308H209.777V82.2863H208.014V76.9308H206.119V75.6017H211.673V76.9308ZM218.109 82.3254H216.213L215.773 80.9572H213.348L212.863 82.3254H211.321L213.744 75.6407H215.773L218.109 82.3254ZM215.331 79.7062L214.538 77.3608L213.744 79.7062H215.331ZM223.267 76.9308H221.371V82.2863H219.608V76.9308H217.713V75.6017H223.267V76.9308ZM225.912 76.8917V78.2599H228.777V79.5109H225.912V80.9963H229.526V82.2863H224.148V75.6017H229.526V76.8917H225.912ZM239.665 82.3254H238.166L235.256 77.8299H235.212V82.3254H233.846V75.6407H235.741L238.254 79.589V75.6407H239.621V82.3254H239.665ZM242.883 76.8917V78.2599H245.748V79.5109H242.883V80.9963H246.497V82.2863H241.12V75.6017H246.497V76.8917H242.883ZM254.741 82.3254H253.022L251.787 77.908H251.744L250.553 82.3254H248.834L246.894 75.6407H248.702L249.847 80.1362L251.082 75.6407H252.712L253.991 80.1362H254.035L254.079 79.8236L255.181 75.6017H256.636L254.741 82.3254ZM261.264 77.5171C261.044 76.9699 260.648 76.7353 259.986 76.7353C259.501 76.7353 258.928 76.8525 258.928 77.3608C258.928 77.8299 259.589 77.9471 260.031 78.0254C260.648 78.1426 261.485 78.2599 262.014 78.5726C262.631 78.9245 262.984 79.4717 262.984 80.1362C262.984 80.8008 262.631 81.4263 262.058 81.8172C261.441 82.2472 260.648 82.3645 259.854 82.3645C258.444 82.3645 257.166 81.8172 256.812 80.5272L258.444 80.2145C258.664 80.9181 259.237 81.1527 260.031 81.1527C260.516 81.1527 261.221 80.9963 261.221 80.449C261.221 79.9017 260.383 79.7845 259.898 79.7062C258.576 79.4717 257.254 79.1199 257.254 77.6344C257.254 77.0089 257.518 76.4617 258.047 76.0708C258.576 75.6798 259.237 75.5234 259.943 75.5234C261.264 75.5234 262.323 75.9144 262.808 77.0871L261.264 77.5171Z" fill="#727272"/>
</svg>
